<mxfile host="app.diagrams.net" modified="2024-04-11T07:14:18.491Z" agent="Mozilla/5.0 (Macintosh; Intel Mac OS X 10_15_7) AppleWebKit/537.36 (KHTML, like Gecko) Chrome/123.0.0.0 Safari/537.36" etag="fWc26M_kje7kVy607-Ym" version="24.2.3" type="device">
  <diagram name="Trang-1" id="YpBtrWiU22aWqyQ4-Rf5">
    <mxGraphModel dx="3060" dy="711" grid="0" gridSize="10" guides="1" tooltips="1" connect="1" arrows="1" fold="1" page="0" pageScale="1" pageWidth="827" pageHeight="1169" math="0" shadow="0">
      <root>
        <mxCell id="0" />
        <mxCell id="1" parent="0" />
        <mxCell id="Km1FKrLN20SdvjPhCvby-1" value="Teacher" style="shape=umlActor;verticalLabelPosition=bottom;verticalAlign=top;html=1;outlineConnect=0;" vertex="1" parent="1">
          <mxGeometry x="-1498" y="589" width="30" height="60" as="geometry" />
        </mxCell>
        <mxCell id="Km1FKrLN20SdvjPhCvby-7" value="Manage student" style="ellipse;whiteSpace=wrap;html=1;flipH=0;flipV=1;" vertex="1" parent="1">
          <mxGeometry x="-1249" y="367" width="140" height="32" as="geometry" />
        </mxCell>
        <mxCell id="Km1FKrLN20SdvjPhCvby-10" value="" style="endArrow=none;html=1;rounded=0;exitX=0.5;exitY=0.5;exitDx=0;exitDy=0;exitPerimeter=0;entryX=0;entryY=0.5;entryDx=0;entryDy=0;" edge="1" parent="1" source="Km1FKrLN20SdvjPhCvby-1" target="Km1FKrLN20SdvjPhCvby-7">
          <mxGeometry width="50" height="50" relative="1" as="geometry">
            <mxPoint x="-1114" y="640" as="sourcePoint" />
            <mxPoint x="-1064" y="590" as="targetPoint" />
          </mxGeometry>
        </mxCell>
        <mxCell id="Km1FKrLN20SdvjPhCvby-11" value="Manage courses (teacher)" style="ellipse;whiteSpace=wrap;html=1;flipH=0;flipV=1;" vertex="1" parent="1">
          <mxGeometry x="-1249" y="437" width="154" height="38" as="geometry" />
        </mxCell>
        <mxCell id="Km1FKrLN20SdvjPhCvby-12" value="Log in/out" style="ellipse;whiteSpace=wrap;html=1;flipH=0;flipV=1;" vertex="1" parent="1">
          <mxGeometry x="-1249" y="512" width="140" height="32" as="geometry" />
        </mxCell>
        <mxCell id="Km1FKrLN20SdvjPhCvby-13" value="Manage schedule class" style="ellipse;whiteSpace=wrap;html=1;flipH=0;flipV=1;" vertex="1" parent="1">
          <mxGeometry x="-1249" y="582" width="154" height="38" as="geometry" />
        </mxCell>
        <mxCell id="Km1FKrLN20SdvjPhCvby-15" value="Chat" style="ellipse;whiteSpace=wrap;html=1;flipH=0;flipV=1;" vertex="1" parent="1">
          <mxGeometry x="-1249" y="654" width="154" height="38" as="geometry" />
        </mxCell>
        <mxCell id="Km1FKrLN20SdvjPhCvby-16" value="Manage excercises" style="ellipse;whiteSpace=wrap;html=1;flipH=0;flipV=1;" vertex="1" parent="1">
          <mxGeometry x="-1249" y="799" width="154" height="38" as="geometry" />
        </mxCell>
        <mxCell id="Km1FKrLN20SdvjPhCvby-17" value="Manage profile" style="ellipse;whiteSpace=wrap;html=1;flipH=0;flipV=1;" vertex="1" parent="1">
          <mxGeometry x="-1249" y="727" width="154" height="38" as="geometry" />
        </mxCell>
        <mxCell id="Km1FKrLN20SdvjPhCvby-19" value="" style="endArrow=none;html=1;rounded=0;entryX=0;entryY=0.5;entryDx=0;entryDy=0;" edge="1" parent="1" source="Km1FKrLN20SdvjPhCvby-1" target="Km1FKrLN20SdvjPhCvby-12">
          <mxGeometry width="50" height="50" relative="1" as="geometry">
            <mxPoint x="-1210" y="654" as="sourcePoint" />
            <mxPoint x="-1160" y="604" as="targetPoint" />
          </mxGeometry>
        </mxCell>
        <mxCell id="Km1FKrLN20SdvjPhCvby-20" value="" style="endArrow=none;html=1;rounded=0;entryX=0;entryY=0.5;entryDx=0;entryDy=0;" edge="1" parent="1" source="Km1FKrLN20SdvjPhCvby-1" target="Km1FKrLN20SdvjPhCvby-11">
          <mxGeometry width="50" height="50" relative="1" as="geometry">
            <mxPoint x="-1210" y="654" as="sourcePoint" />
            <mxPoint x="-1160" y="604" as="targetPoint" />
          </mxGeometry>
        </mxCell>
        <mxCell id="Km1FKrLN20SdvjPhCvby-21" value="" style="endArrow=none;html=1;rounded=0;exitX=0.5;exitY=0.5;exitDx=0;exitDy=0;exitPerimeter=0;entryX=0;entryY=0.5;entryDx=0;entryDy=0;" edge="1" parent="1" source="Km1FKrLN20SdvjPhCvby-1" target="Km1FKrLN20SdvjPhCvby-13">
          <mxGeometry width="50" height="50" relative="1" as="geometry">
            <mxPoint x="-1210" y="654" as="sourcePoint" />
            <mxPoint x="-1160" y="604" as="targetPoint" />
          </mxGeometry>
        </mxCell>
        <mxCell id="Km1FKrLN20SdvjPhCvby-24" value="" style="endArrow=none;html=1;rounded=0;exitX=0.5;exitY=0.5;exitDx=0;exitDy=0;exitPerimeter=0;entryX=0;entryY=0.5;entryDx=0;entryDy=0;" edge="1" parent="1" source="Km1FKrLN20SdvjPhCvby-1" target="Km1FKrLN20SdvjPhCvby-15">
          <mxGeometry width="50" height="50" relative="1" as="geometry">
            <mxPoint x="-1210" y="654" as="sourcePoint" />
            <mxPoint x="-1160" y="604" as="targetPoint" />
          </mxGeometry>
        </mxCell>
        <mxCell id="Km1FKrLN20SdvjPhCvby-25" value="" style="endArrow=none;html=1;rounded=0;entryX=0;entryY=0.5;entryDx=0;entryDy=0;" edge="1" parent="1" source="Km1FKrLN20SdvjPhCvby-1" target="Km1FKrLN20SdvjPhCvby-17">
          <mxGeometry width="50" height="50" relative="1" as="geometry">
            <mxPoint x="-1210" y="654" as="sourcePoint" />
            <mxPoint x="-1160" y="604" as="targetPoint" />
          </mxGeometry>
        </mxCell>
        <mxCell id="Km1FKrLN20SdvjPhCvby-26" value="" style="endArrow=none;html=1;rounded=0;entryX=0;entryY=0.5;entryDx=0;entryDy=0;" edge="1" parent="1" source="Km1FKrLN20SdvjPhCvby-1" target="Km1FKrLN20SdvjPhCvby-16">
          <mxGeometry width="50" height="50" relative="1" as="geometry">
            <mxPoint x="-1210" y="654" as="sourcePoint" />
            <mxPoint x="-1160" y="604" as="targetPoint" />
          </mxGeometry>
        </mxCell>
        <mxCell id="Km1FKrLN20SdvjPhCvby-44" value="Student" style="shape=umlActor;verticalLabelPosition=bottom;verticalAlign=top;html=1;outlineConnect=0;" vertex="1" parent="1">
          <mxGeometry x="-1012" y="589" width="30" height="60" as="geometry" />
        </mxCell>
        <mxCell id="Km1FKrLN20SdvjPhCvby-47" value="Manage courses (student)" style="ellipse;whiteSpace=wrap;html=1;flipH=0;flipV=1;" vertex="1" parent="1">
          <mxGeometry x="-765" y="367" width="154" height="38" as="geometry" />
        </mxCell>
        <mxCell id="Km1FKrLN20SdvjPhCvby-48" value="Log in/out" style="ellipse;whiteSpace=wrap;html=1;flipH=0;flipV=1;" vertex="1" parent="1">
          <mxGeometry x="-765" y="443" width="140" height="32" as="geometry" />
        </mxCell>
        <mxCell id="Km1FKrLN20SdvjPhCvby-49" value="Attend class" style="ellipse;whiteSpace=wrap;html=1;flipH=0;flipV=1;" vertex="1" parent="1">
          <mxGeometry x="-765" y="512" width="154" height="38" as="geometry" />
        </mxCell>
        <mxCell id="Km1FKrLN20SdvjPhCvby-50" value="View schedule class" style="ellipse;whiteSpace=wrap;html=1;flipH=0;flipV=1;" vertex="1" parent="1">
          <mxGeometry x="-765" y="589" width="154" height="38" as="geometry" />
        </mxCell>
        <mxCell id="Km1FKrLN20SdvjPhCvby-51" value="Submit excercises" style="ellipse;whiteSpace=wrap;html=1;flipH=0;flipV=1;" vertex="1" parent="1">
          <mxGeometry x="-765" y="727" width="154" height="38" as="geometry" />
        </mxCell>
        <mxCell id="Km1FKrLN20SdvjPhCvby-52" value="Manage profile" style="ellipse;whiteSpace=wrap;html=1;flipH=0;flipV=1;" vertex="1" parent="1">
          <mxGeometry x="-765" y="654" width="154" height="38" as="geometry" />
        </mxCell>
        <mxCell id="Km1FKrLN20SdvjPhCvby-53" value="" style="endArrow=none;html=1;rounded=0;entryX=0;entryY=0.5;entryDx=0;entryDy=0;" edge="1" parent="1" source="Km1FKrLN20SdvjPhCvby-44" target="Km1FKrLN20SdvjPhCvby-48">
          <mxGeometry width="50" height="50" relative="1" as="geometry">
            <mxPoint x="-724" y="622" as="sourcePoint" />
            <mxPoint x="-674" y="572" as="targetPoint" />
          </mxGeometry>
        </mxCell>
        <mxCell id="Km1FKrLN20SdvjPhCvby-54" value="" style="endArrow=none;html=1;rounded=0;entryX=0;entryY=0.5;entryDx=0;entryDy=0;" edge="1" parent="1" source="Km1FKrLN20SdvjPhCvby-44" target="Km1FKrLN20SdvjPhCvby-47">
          <mxGeometry width="50" height="50" relative="1" as="geometry">
            <mxPoint x="-724" y="622" as="sourcePoint" />
            <mxPoint x="-674" y="572" as="targetPoint" />
          </mxGeometry>
        </mxCell>
        <mxCell id="Km1FKrLN20SdvjPhCvby-55" value="" style="endArrow=none;html=1;rounded=0;exitX=0.5;exitY=0.5;exitDx=0;exitDy=0;exitPerimeter=0;entryX=0;entryY=0.5;entryDx=0;entryDy=0;" edge="1" parent="1" source="Km1FKrLN20SdvjPhCvby-44" target="Km1FKrLN20SdvjPhCvby-49">
          <mxGeometry width="50" height="50" relative="1" as="geometry">
            <mxPoint x="-724" y="622" as="sourcePoint" />
            <mxPoint x="-674" y="572" as="targetPoint" />
          </mxGeometry>
        </mxCell>
        <mxCell id="Km1FKrLN20SdvjPhCvby-56" value="" style="endArrow=none;html=1;rounded=0;exitX=0.5;exitY=0.5;exitDx=0;exitDy=0;exitPerimeter=0;entryX=0;entryY=0.5;entryDx=0;entryDy=0;" edge="1" parent="1" source="Km1FKrLN20SdvjPhCvby-44" target="Km1FKrLN20SdvjPhCvby-50">
          <mxGeometry width="50" height="50" relative="1" as="geometry">
            <mxPoint x="-724" y="622" as="sourcePoint" />
            <mxPoint x="-674" y="572" as="targetPoint" />
          </mxGeometry>
        </mxCell>
        <mxCell id="Km1FKrLN20SdvjPhCvby-57" value="" style="endArrow=none;html=1;rounded=0;entryX=0;entryY=0.5;entryDx=0;entryDy=0;" edge="1" parent="1" source="Km1FKrLN20SdvjPhCvby-44" target="Km1FKrLN20SdvjPhCvby-52">
          <mxGeometry width="50" height="50" relative="1" as="geometry">
            <mxPoint x="-724" y="622" as="sourcePoint" />
            <mxPoint x="-674" y="572" as="targetPoint" />
          </mxGeometry>
        </mxCell>
        <mxCell id="Km1FKrLN20SdvjPhCvby-58" value="" style="endArrow=none;html=1;rounded=0;entryX=0;entryY=0.5;entryDx=0;entryDy=0;" edge="1" parent="1" source="Km1FKrLN20SdvjPhCvby-44" target="Km1FKrLN20SdvjPhCvby-51">
          <mxGeometry width="50" height="50" relative="1" as="geometry">
            <mxPoint x="-724" y="622" as="sourcePoint" />
            <mxPoint x="-674" y="572" as="targetPoint" />
          </mxGeometry>
        </mxCell>
        <mxCell id="Km1FKrLN20SdvjPhCvby-59" value="Anonymous" style="shape=umlActor;verticalLabelPosition=bottom;verticalAlign=top;html=1;outlineConnect=0;" vertex="1" parent="1">
          <mxGeometry x="-1931" y="589" width="29" height="60" as="geometry" />
        </mxCell>
        <mxCell id="Km1FKrLN20SdvjPhCvby-60" value="View courses" style="ellipse;whiteSpace=wrap;html=1;flipH=0;flipV=1;" vertex="1" parent="1">
          <mxGeometry x="-1738" y="531" width="154" height="38" as="geometry" />
        </mxCell>
        <mxCell id="Km1FKrLN20SdvjPhCvby-61" value="Register" style="ellipse;whiteSpace=wrap;html=1;flipH=0;flipV=1;" vertex="1" parent="1">
          <mxGeometry x="-1738" y="607" width="140" height="32" as="geometry" />
        </mxCell>
        <mxCell id="Km1FKrLN20SdvjPhCvby-62" value="View teacher profile" style="ellipse;whiteSpace=wrap;html=1;flipH=0;flipV=1;" vertex="1" parent="1">
          <mxGeometry x="-1738" y="671" width="154" height="38" as="geometry" />
        </mxCell>
        <mxCell id="Km1FKrLN20SdvjPhCvby-66" value="" style="endArrow=none;html=1;rounded=0;entryX=0;entryY=0.5;entryDx=0;entryDy=0;" edge="1" parent="1" source="Km1FKrLN20SdvjPhCvby-59" target="Km1FKrLN20SdvjPhCvby-61">
          <mxGeometry width="50" height="50" relative="1" as="geometry">
            <mxPoint x="-1641" y="632" as="sourcePoint" />
            <mxPoint x="-1591" y="582" as="targetPoint" />
          </mxGeometry>
        </mxCell>
        <mxCell id="Km1FKrLN20SdvjPhCvby-67" value="" style="endArrow=none;html=1;rounded=0;entryX=0;entryY=0.5;entryDx=0;entryDy=0;" edge="1" parent="1" source="Km1FKrLN20SdvjPhCvby-59" target="Km1FKrLN20SdvjPhCvby-60">
          <mxGeometry width="50" height="50" relative="1" as="geometry">
            <mxPoint x="-1641" y="632" as="sourcePoint" />
            <mxPoint x="-1591" y="582" as="targetPoint" />
          </mxGeometry>
        </mxCell>
        <mxCell id="Km1FKrLN20SdvjPhCvby-68" value="" style="endArrow=none;html=1;rounded=0;exitX=0.5;exitY=0.5;exitDx=0;exitDy=0;exitPerimeter=0;entryX=0;entryY=0.5;entryDx=0;entryDy=0;" edge="1" parent="1" source="Km1FKrLN20SdvjPhCvby-59" target="Km1FKrLN20SdvjPhCvby-62">
          <mxGeometry width="50" height="50" relative="1" as="geometry">
            <mxPoint x="-1641" y="632" as="sourcePoint" />
            <mxPoint x="-1591" y="582" as="targetPoint" />
          </mxGeometry>
        </mxCell>
        <mxCell id="Km1FKrLN20SdvjPhCvby-83" value="Chat" style="ellipse;whiteSpace=wrap;html=1;flipH=0;flipV=1;" vertex="1" parent="1">
          <mxGeometry x="-765" y="799" width="154" height="38" as="geometry" />
        </mxCell>
        <mxCell id="Km1FKrLN20SdvjPhCvby-84" value="" style="endArrow=none;html=1;rounded=0;exitX=0.5;exitY=0.5;exitDx=0;exitDy=0;exitPerimeter=0;entryX=0;entryY=0.5;entryDx=0;entryDy=0;" edge="1" parent="1" source="Km1FKrLN20SdvjPhCvby-44" target="Km1FKrLN20SdvjPhCvby-83">
          <mxGeometry width="50" height="50" relative="1" as="geometry">
            <mxPoint x="-1032" y="680" as="sourcePoint" />
            <mxPoint x="-982" y="630" as="targetPoint" />
          </mxGeometry>
        </mxCell>
      </root>
    </mxGraphModel>
  </diagram>
</mxfile>
